PathFileType	4	(X/Y/Z)
DataRate	CameraRate	NumFrames	NumMarkers	Units	OrigDataRate	OrigDataStartFrame	OrigNumFrames	
  100.0	  100.0	    4	     55	     mm	  100.0	      130	    516
Frame#	Time	LASI			RASI			LPSI			RPSI			RTH1			RTH2			RTH3			RLFC			RMFC			LTH1			LTH2			LTH3			LLFC			LMFC			RTB1			RTB2			RTB3			RLMAL			RMMAL			LTB1			LTB2			LTB3			LMMAL			LLMAL			RCAL			RTOE			RMT5			LCAL			LTOE			LMT5			LACR			RACR			CLAV			LASH			LPSH			RASH			RPSH			RUA1			RUA2			RUA3			RLEL			RMEL			LUA1			LUA2			LUA3			LLEL			LMEL			RFAsuperior			RFAradius			RFAulna			LFAsuperior			LFAradius			LFAulna			RHJC			LHJC			
		X1	Y1	Z1	X2	Y2	Z2	X3	Y3	Z3	X4	Y4	Z4	X5	Y5	Z5	X6	Y6	Z6	X7	Y7	Z7	X8	Y8	Z8	X9	Y9	Z9	X10	Y10	Z10	X11	Y11	Z11	X12	Y12	Z12	X13	Y13	Z13	X14	Y14	Z14	X15	Y15	Z15	X16	Y16	Z16	X17	Y17	Z17	X18	Y18	Z18	X19	Y19	Z19	X20	Y20	Z20	X21	Y21	Z21	X22	Y22	Z22	X23	Y23	Z23	X24	Y24	Z24	X25	Y25	Z25	X26	Y26	Z26	X27	Y27	Z27	X28	Y28	Z28	X29	Y29	Z29	X30	Y30	Z30	X31	Y31	Z31	X32	Y32	Z32	X33	Y33	Z33	X34	Y34	Z34	X35	Y35	Z35	X36	Y36	Z36	X37	Y37	Z37	X38	Y38	Z38	X39	Y39	Z39	X40	Y40	Z40	X41	Y41	Z41	X42	Y42	Z42	X43	Y43	Z43	X44	Y44	Z44	X45	Y45	Z45	X46	Y46	Z46	X47	Y47	Z47	X48	Y48	Z48	X49	Y49	Z49	X50	Y50	Z50	X51	Y51	Z51	X52	Y52	Z52	X53	Y53	Z53	X54	Y54	Z54	X55	Y55	Z55	

133	1.33000	541.27207	1030.48058	-382.91069	277.46706	1030.64566	-381.10744	450.48051	1080.28166	-575.48815	369.16727	1077.86971	-575.47371	217.94350	894.79785	-447.44694	234.72310	760.55893	-400.72645	245.03815	654.56553	-489.08073	246.74516	543.39378	-481.42960	374.53919	530.85377	-478.80543	595.10109	911.44370	-462.57793	581.67034	791.13763	-408.04708	568.39565	662.73760	-511.47943	564.96141	548.31927	-508.03959	445.55930	528.91055	-486.87199	290.58640	401.95979	-455.14953	231.70218	312.28429	-511.41455	289.23942	206.83009	-495.44884	246.17632	119.71367	-559.31613	333.46457	120.39596	-540.77536	523.27879	428.02079	-475.61254	582.31576	359.10877	-549.69758	525.82244	223.98459	-505.61572	476.26267	122.80480	-533.87984	558.44577	115.34455	-569.15629	296.10978	79.82520	-636.02675	286.84535	74.39454	-399.31029	197.84583	54.13702	-429.24847	499.79716	80.59656	-638.04060	543.09519	81.21267	-406.40964	618.28578	48.34316	-446.93064	563.14746	1565.84746	-486.72153	265.02608	1551.38045	-511.76659	392.29179	1508.44491	-416.85840	575.50759	1515.97376	-424.09190	582.86659	1520.86753	-561.93638	254.34862	1516.02733	-450.97265	255.87825	1497.99433	-593.04820	158.58832	1519.42120	-554.29121	105.33431	1434.19524	-575.78088	51.53516	1486.16437	-547.87719	-44.93394	1478.02655	-532.68175	-36.01003	1397.85179	-531.38131	676.23755	1540.91983	-525.24564	731.60166	1456.64539	-543.44170	786.00470	1508.76141	-513.68227	874.23698	1507.47045	-491.12977	882.88922	1429.37421	-494.15000	-83.04193	1483.52417	-461.92779	-76.49126	1458.46330	-260.31099	-143.52331	1455.11589	-279.20653	897.51303	1513.56990	-368.88214	858.56894	1469.23496	-224.33501	924.73456	1477.76809	-228.53358	303.89280	959.47164	-449.25771	495.75253	981.31592	-463.88745	
134	1.34000	541.23377	1030.48054	-382.88840	277.47217	1030.64676	-381.09934	450.48129	1080.28603	-575.48871	369.19242	1077.90658	-575.51395	217.92564	894.79596	-447.46056	234.69063	760.54567	-400.74973	245.03682	654.56680	-489.07463	246.81231	543.46453	-481.30211	374.52677	530.85633	-478.80084	595.09170	911.44624	-462.54218	581.71559	791.18816	-407.82777	568.38656	662.74767	-511.45006	564.98113	548.32920	-508.03603	445.55502	528.87266	-486.95275	290.46474	402.38982	-455.00422	231.70049	312.29044	-511.40725	289.22748	206.85375	-495.42311	246.17722	119.71261	-559.31998	333.46298	120.40251	-540.77486	523.26836	428.00672	-475.59256	582.31471	359.12045	-549.67566	525.82438	223.98324	-505.61339	476.25678	122.80661	-533.87973	558.43660	115.34002	-569.13611	296.19012	79.90680	-636.09035	286.83034	74.38664	-399.30003	197.90510	54.27532	-429.17895	499.79926	80.60309	-638.03405	543.09402	81.21022	-406.40400	618.27914	48.34594	-446.91892	563.19666	1565.78287	-486.61065	265.00390	1551.40495	-511.75352	392.29422	1508.45177	-416.83025	575.51462	1516.00024	-424.05958	582.90815	1520.86550	-561.90882	254.41805	1516.03381	-450.71581	255.84080	1497.99431	-593.01405	158.60155	1519.44191	-554.30096	105.31965	1434.21680	-575.76573	51.50167	1486.29363	-547.77396	-44.96289	1478.09261	-532.59794	-36.02075	1397.88536	-531.35894	676.27930	1540.89487	-525.21158	731.64676	1456.64678	-543.43337	786.04186	1508.74671	-513.58237	874.26053	1507.42305	-491.04119	882.89251	1429.33472	-494.03677	-83.04677	1483.57097	-461.89791	-76.47880	1458.55907	-260.30264	-143.16631	1455.12986	-279.58205	897.51204	1513.52733	-368.78073	858.53345	1469.19359	-224.20556	924.70405	1477.70878	-228.42831	303.88411	959.48204	-449.27443	495.74641	981.32173	-463.87512	
135	1.35000	541.19527	1030.47716	-382.86057	277.47545	1030.64011	-381.10158	450.46749	1080.28989	-575.47318	369.18150	1077.92192	-575.51539	217.90730	894.79572	-447.46548	234.67311	760.53681	-400.76002	245.07545	654.55624	-489.11083	246.83476	543.51635	-481.28794	374.51576	530.86055	-478.80676	595.07212	911.44585	-462.50259	581.73787	791.22203	-407.65836	568.31715	662.74884	-511.36598	564.98777	548.33314	-508.02381	445.53853	528.85887	-486.95740	290.42557	402.77464	-454.89111	231.71373	312.28996	-511.40152	289.23235	206.86311	-495.39997	246.17592	119.70570	-559.32074	333.46733	120.40001	-540.77640	523.26120	428.01495	-475.56558	582.30717	359.12898	-549.65249	525.83137	223.97381	-505.62240	476.24808	122.80755	-533.88311	558.44378	115.35385	-569.14643	296.23403	79.95821	-636.13431	286.83575	74.39908	-399.30074	197.95391	54.19478	-429.24145	499.79465	80.60215	-638.02199	543.09087	81.20853	-406.39501	618.27523	48.34433	-446.92228	563.24289	1565.66877	-486.43517	265.00261	1551.40476	-511.75139	392.29123	1508.46768	-416.79759	575.51075	1516.01885	-424.02293	582.94560	1520.85207	-561.88050	254.52241	1516.04105	-450.44307	255.81340	1498.00210	-592.98860	158.62435	1519.49633	-554.34276	105.30286	1434.24576	-575.74724	51.47189	1486.45950	-547.63685	-44.97699	1478.12971	-532.53888	-36.01234	1397.91389	-531.33970	676.30678	1540.87745	-525.16331	731.67080	1456.62146	-543.38614	786.06120	1508.71757	-513.48373	874.26397	1507.37660	-490.94279	882.88428	1429.29217	-493.90956	-83.04888	1483.61942	-461.86629	-76.45771	1458.64863	-260.28630	-142.86829	1455.17315	-279.90140	897.49356	1513.48182	-368.67639	858.49461	1469.16434	-224.06731	924.66383	1477.64865	-228.31548	303.87101	959.47870	-449.27284	495.73328	981.32536	-463.86543	
136	1.36000	541.15857	1030.47380	-382.83003	277.46469	1030.63401	-381.11255	450.45008	1080.29778	-575.44512	369.15668	1077.92588	-575.49786	217.88806	894.80571	-447.45817	234.67366	760.53421	-400.74993	245.11316	654.53871	-489.17079	246.78306	543.49912	-481.41227	374.50896	530.86661	-478.82699	595.04273	911.44137	-462.46495	581.72813	791.22838	-407.58735	568.22809	662.74212	-511.26257	564.96842	548.32447	-507.99616	445.52338	528.87298	-486.89118	290.51056	402.72350	-454.93765	231.71500	312.29228	-511.41176	289.22632	206.87124	-495.38911	246.17564	119.69779	-559.31895	333.47351	120.39274	-540.77805	523.26342	428.05636	-475.53190	582.28574	359.12358	-549.62578	525.83692	223.97220	-505.61115	476.23858	122.80443	-533.88908	558.46221	115.37985	-569.17575	296.22034	79.95763	-636.13680	286.84501	74.41360	-399.30541	197.99258	53.91685	-429.42445	499.77890	80.59239	-638.00647	543.08376	81.20960	-406.38072	618.27731	48.33850	-446.93348	563.25270	1565.60864	-486.33076	265.00831	1551.41651	-511.73241	392.29880	1508.49302	-416.77681	575.49815	1516.01896	-423.98388	582.96537	1520.83116	-561.84753	254.40434	1516.07461	-450.73325	255.81920	1498.02630	-592.97957	158.64392	1519.57429	-554.40052	105.29499	1434.28312	-575.73748	51.45813	1486.57767	-547.53398	-44.93781	1478.11683	-532.57520	-36.00433	1397.94522	-531.31292	676.31469	1540.86454	-525.09476	731.66507	1456.57516	-543.28587	786.06033	1508.67897	-513.38595	874.25327	1507.33356	-490.83128	882.87033	1429.25070	-493.79641	-83.04249	1483.66614	-461.84843	-76.42562	1458.73311	-260.28610	-142.82667	1455.30279	-279.95935	897.45715	1513.44711	-368.58126	858.45951	1469.13965	-223.92473	924.61695	1477.59997	-228.19644	303.85185	959.47306	-449.26722	495.71376	981.32900	-463.85363	
